<mxfile host="app.diagrams.net" modified="2023-09-06T00:47:36.619Z" agent="Mozilla/5.0 (Windows NT 10.0; Win64; x64) AppleWebKit/537.36 (KHTML, like Gecko) Chrome/116.0.0.0 Safari/537.36 Edg/116.0.1938.69" etag="2jaaOORRPx4Qc0Xnxb6i" version="21.7.2" type="github">
  <diagram name="페이지-1" id="XKi_f7elmKGPbEuUmNqf">
    <mxGraphModel dx="2219" dy="2322" grid="1" gridSize="10" guides="1" tooltips="1" connect="1" arrows="1" fold="1" page="1" pageScale="1" pageWidth="827" pageHeight="1169" math="0" shadow="0">
      <root>
        <mxCell id="0" />
        <mxCell id="1" parent="0" />
        <mxCell id="g7l1Z7gb8DmTAvJHHtyv-1" value="주제 : 하루 일과 계획" style="rounded=0;whiteSpace=wrap;html=1;" parent="1" vertex="1">
          <mxGeometry x="40" y="-1150" width="210" height="70" as="geometry" />
        </mxCell>
        <mxCell id="g7l1Z7gb8DmTAvJHHtyv-2" value="Actor" style="shape=umlActor;verticalLabelPosition=bottom;verticalAlign=top;html=1;outlineConnect=0;" parent="1" vertex="1">
          <mxGeometry x="40" y="-1040" width="40" height="80" as="geometry" />
        </mxCell>
        <mxCell id="g7l1Z7gb8DmTAvJHHtyv-3" value="(주5일 9to6 출근하는 직장인)" style="text;html=1;strokeColor=none;fillColor=none;align=center;verticalAlign=middle;whiteSpace=wrap;rounded=0;" parent="1" vertex="1">
          <mxGeometry y="-960" width="130" height="70" as="geometry" />
        </mxCell>
        <mxCell id="g7l1Z7gb8DmTAvJHHtyv-4" value="" style="endArrow=classic;html=1;rounded=0;" parent="1" edge="1">
          <mxGeometry width="50" height="50" relative="1" as="geometry">
            <mxPoint x="80" y="-1000" as="sourcePoint" />
            <mxPoint x="140" y="-1000" as="targetPoint" />
          </mxGeometry>
        </mxCell>
        <mxCell id="g7l1Z7gb8DmTAvJHHtyv-7" value="" style="edgeStyle=orthogonalEdgeStyle;rounded=0;orthogonalLoop=1;jettySize=auto;html=1;" parent="1" source="g7l1Z7gb8DmTAvJHHtyv-5" target="g7l1Z7gb8DmTAvJHHtyv-6" edge="1">
          <mxGeometry relative="1" as="geometry" />
        </mxCell>
        <mxCell id="g7l1Z7gb8DmTAvJHHtyv-5" value="출근한다" style="ellipse;whiteSpace=wrap;html=1;" parent="1" vertex="1">
          <mxGeometry x="140" y="-1050" width="120" height="80" as="geometry" />
        </mxCell>
        <mxCell id="J1PhEawB0jR5SbhIxSvh-1" value="" style="edgeStyle=orthogonalEdgeStyle;rounded=0;orthogonalLoop=1;jettySize=auto;html=1;" edge="1" parent="1" source="g7l1Z7gb8DmTAvJHHtyv-6" target="g7l1Z7gb8DmTAvJHHtyv-8">
          <mxGeometry relative="1" as="geometry" />
        </mxCell>
        <mxCell id="g7l1Z7gb8DmTAvJHHtyv-6" value="오전 업무를 본다" style="ellipse;whiteSpace=wrap;html=1;" parent="1" vertex="1">
          <mxGeometry x="370" y="-1050" width="120" height="80" as="geometry" />
        </mxCell>
        <mxCell id="g7l1Z7gb8DmTAvJHHtyv-11" value="" style="edgeStyle=orthogonalEdgeStyle;rounded=0;orthogonalLoop=1;jettySize=auto;html=1;" parent="1" source="g7l1Z7gb8DmTAvJHHtyv-8" target="g7l1Z7gb8DmTAvJHHtyv-10" edge="1">
          <mxGeometry relative="1" as="geometry" />
        </mxCell>
        <mxCell id="g7l1Z7gb8DmTAvJHHtyv-8" value="점심을 먹는다" style="ellipse;whiteSpace=wrap;html=1;" parent="1" vertex="1">
          <mxGeometry x="620" y="-1050" width="120" height="80" as="geometry" />
        </mxCell>
        <mxCell id="g7l1Z7gb8DmTAvJHHtyv-13" value="" style="edgeStyle=orthogonalEdgeStyle;rounded=0;orthogonalLoop=1;jettySize=auto;html=1;" parent="1" source="g7l1Z7gb8DmTAvJHHtyv-10" target="g7l1Z7gb8DmTAvJHHtyv-12" edge="1">
          <mxGeometry relative="1" as="geometry" />
        </mxCell>
        <mxCell id="g7l1Z7gb8DmTAvJHHtyv-10" value="오후 업무를 본다" style="ellipse;whiteSpace=wrap;html=1;" parent="1" vertex="1">
          <mxGeometry x="620" y="-500" width="120" height="80" as="geometry" />
        </mxCell>
        <mxCell id="g7l1Z7gb8DmTAvJHHtyv-12" value="퇴근한다" style="ellipse;whiteSpace=wrap;html=1;" parent="1" vertex="1">
          <mxGeometry x="140" y="-500" width="120" height="80" as="geometry" />
        </mxCell>
        <mxCell id="g7l1Z7gb8DmTAvJHHtyv-30" value="&amp;lt;&amp;lt;extend&amp;gt;&amp;gt;" style="html=1;verticalAlign=bottom;labelBackgroundColor=none;endArrow=open;endFill=0;dashed=1;rounded=0;entryX=0.5;entryY=0;entryDx=0;entryDy=0;" parent="1" target="g7l1Z7gb8DmTAvJHHtyv-33" edge="1">
          <mxGeometry width="160" relative="1" as="geometry">
            <mxPoint x="400" y="-970" as="sourcePoint" />
            <mxPoint x="415.00000000000006" y="-670" as="targetPoint" />
          </mxGeometry>
        </mxCell>
        <mxCell id="g7l1Z7gb8DmTAvJHHtyv-31" value="&amp;lt;&amp;lt;extend&amp;gt;&amp;gt;" style="html=1;verticalAlign=bottom;labelBackgroundColor=none;endArrow=open;endFill=0;dashed=1;rounded=0;exitX=0;exitY=1;exitDx=0;exitDy=0;" parent="1" source="g7l1Z7gb8DmTAvJHHtyv-6" target="g7l1Z7gb8DmTAvJHHtyv-32" edge="1">
          <mxGeometry width="160" relative="1" as="geometry">
            <mxPoint x="287" y="-893" as="sourcePoint" />
            <mxPoint x="435.00000000000006" y="-779.5" as="targetPoint" />
          </mxGeometry>
        </mxCell>
        <mxCell id="g7l1Z7gb8DmTAvJHHtyv-32" value="일정 계획 메일 보내기" style="ellipse;whiteSpace=wrap;html=1;" parent="1" vertex="1">
          <mxGeometry x="180" y="-910" width="120" height="80" as="geometry" />
        </mxCell>
        <mxCell id="g7l1Z7gb8DmTAvJHHtyv-33" value="발표할 내용&lt;br&gt;조사하기" style="ellipse;whiteSpace=wrap;html=1;" parent="1" vertex="1">
          <mxGeometry x="240" y="-840" width="120" height="80" as="geometry" />
        </mxCell>
        <mxCell id="g7l1Z7gb8DmTAvJHHtyv-34" value="&amp;lt;&amp;lt;extend&amp;gt;&amp;gt;" style="html=1;verticalAlign=bottom;labelBackgroundColor=none;endArrow=open;endFill=0;dashed=1;rounded=0;entryX=0.433;entryY=-0.012;entryDx=0;entryDy=0;entryPerimeter=0;exitX=0.425;exitY=1;exitDx=0;exitDy=0;exitPerimeter=0;" parent="1" source="g7l1Z7gb8DmTAvJHHtyv-6" target="g7l1Z7gb8DmTAvJHHtyv-35" edge="1">
          <mxGeometry width="160" relative="1" as="geometry">
            <mxPoint x="279.99640687119273" y="-891.7157287525381" as="sourcePoint" />
            <mxPoint x="545" y="-770" as="targetPoint" />
          </mxGeometry>
        </mxCell>
        <mxCell id="g7l1Z7gb8DmTAvJHHtyv-35" value="발표하기" style="ellipse;whiteSpace=wrap;html=1;" parent="1" vertex="1">
          <mxGeometry x="360" y="-810" width="120" height="80" as="geometry" />
        </mxCell>
        <mxCell id="g7l1Z7gb8DmTAvJHHtyv-36" value="&amp;lt;&amp;lt;extend&amp;gt;&amp;gt;" style="html=1;verticalAlign=bottom;labelBackgroundColor=none;endArrow=open;endFill=0;dashed=1;rounded=0;exitX=0.792;exitY=0.963;exitDx=0;exitDy=0;exitPerimeter=0;" parent="1" source="g7l1Z7gb8DmTAvJHHtyv-6" target="g7l1Z7gb8DmTAvJHHtyv-37" edge="1">
          <mxGeometry width="160" relative="1" as="geometry">
            <mxPoint x="287.60999999999996" y="-896" as="sourcePoint" />
            <mxPoint x="565" y="-850" as="targetPoint" />
          </mxGeometry>
        </mxCell>
        <mxCell id="g7l1Z7gb8DmTAvJHHtyv-37" value="주간 회의 &lt;br&gt;참석하기" style="ellipse;whiteSpace=wrap;html=1;" parent="1" vertex="1">
          <mxGeometry x="440" y="-900" width="120" height="80" as="geometry" />
        </mxCell>
        <mxCell id="J1PhEawB0jR5SbhIxSvh-2" value="&amp;lt;&amp;lt;extend&amp;gt;&amp;gt;" style="html=1;verticalAlign=bottom;labelBackgroundColor=none;endArrow=open;endFill=0;dashed=1;rounded=0;exitX=0.7;exitY=0.963;exitDx=0;exitDy=0;exitPerimeter=0;entryX=0.367;entryY=0.013;entryDx=0;entryDy=0;entryPerimeter=0;" edge="1" parent="1" source="g7l1Z7gb8DmTAvJHHtyv-8" target="J1PhEawB0jR5SbhIxSvh-18">
          <mxGeometry width="160" relative="1" as="geometry">
            <mxPoint x="720" y="-974" as="sourcePoint" />
            <mxPoint x="743" y="-900" as="targetPoint" />
          </mxGeometry>
        </mxCell>
        <mxCell id="J1PhEawB0jR5SbhIxSvh-4" value="&amp;lt;&amp;lt;extend&amp;gt;&amp;gt;" style="html=1;verticalAlign=bottom;labelBackgroundColor=none;endArrow=open;endFill=0;dashed=1;rounded=0;exitX=1;exitY=1;exitDx=0;exitDy=0;entryX=0.025;entryY=0.413;entryDx=0;entryDy=0;entryPerimeter=0;" edge="1" parent="1" source="g7l1Z7gb8DmTAvJHHtyv-8" target="J1PhEawB0jR5SbhIxSvh-20">
          <mxGeometry width="160" relative="1" as="geometry">
            <mxPoint x="715" y="-977" as="sourcePoint" />
            <mxPoint x="830" y="-940" as="targetPoint" />
          </mxGeometry>
        </mxCell>
        <mxCell id="J1PhEawB0jR5SbhIxSvh-5" value="&amp;lt;&amp;lt;extend&amp;gt;&amp;gt;" style="html=1;verticalAlign=bottom;labelBackgroundColor=none;endArrow=open;endFill=0;dashed=1;rounded=0;exitX=1.017;exitY=0.588;exitDx=0;exitDy=0;exitPerimeter=0;entryX=0;entryY=0.5;entryDx=0;entryDy=0;" edge="1" parent="1" source="g7l1Z7gb8DmTAvJHHtyv-8" target="J1PhEawB0jR5SbhIxSvh-21">
          <mxGeometry width="160" relative="1" as="geometry">
            <mxPoint x="740" y="-1011" as="sourcePoint" />
            <mxPoint x="890" y="-1009" as="targetPoint" />
          </mxGeometry>
        </mxCell>
        <mxCell id="J1PhEawB0jR5SbhIxSvh-7" value="&amp;lt;&amp;lt;extend&amp;gt;&amp;gt;" style="html=1;verticalAlign=bottom;labelBackgroundColor=none;endArrow=open;endFill=0;dashed=1;rounded=0;entryX=0.5;entryY=0;entryDx=0;entryDy=0;exitX=0.2;exitY=0.938;exitDx=0;exitDy=0;exitPerimeter=0;" edge="1" parent="1" target="J1PhEawB0jR5SbhIxSvh-10" source="g7l1Z7gb8DmTAvJHHtyv-10">
          <mxGeometry width="160" relative="1" as="geometry">
            <mxPoint x="650" y="-418" as="sourcePoint" />
            <mxPoint x="665" y="-118" as="targetPoint" />
          </mxGeometry>
        </mxCell>
        <mxCell id="J1PhEawB0jR5SbhIxSvh-10" value="발표할 내용&lt;br&gt;조사하기" style="ellipse;whiteSpace=wrap;html=1;" vertex="1" parent="1">
          <mxGeometry x="490" y="-288" width="120" height="80" as="geometry" />
        </mxCell>
        <mxCell id="J1PhEawB0jR5SbhIxSvh-11" value="&amp;lt;&amp;lt;extend&amp;gt;&amp;gt;" style="html=1;verticalAlign=bottom;labelBackgroundColor=none;endArrow=open;endFill=0;dashed=1;rounded=0;entryX=0.433;entryY=-0.012;entryDx=0;entryDy=0;entryPerimeter=0;exitX=0.442;exitY=0.988;exitDx=0;exitDy=0;exitPerimeter=0;" edge="1" parent="1" target="J1PhEawB0jR5SbhIxSvh-12" source="g7l1Z7gb8DmTAvJHHtyv-10">
          <mxGeometry width="160" relative="1" as="geometry">
            <mxPoint x="671" y="-418" as="sourcePoint" />
            <mxPoint x="795" y="-218" as="targetPoint" />
          </mxGeometry>
        </mxCell>
        <mxCell id="J1PhEawB0jR5SbhIxSvh-12" value="발표하기" style="ellipse;whiteSpace=wrap;html=1;" vertex="1" parent="1">
          <mxGeometry x="610" y="-258" width="120" height="80" as="geometry" />
        </mxCell>
        <mxCell id="J1PhEawB0jR5SbhIxSvh-13" value="&amp;lt;&amp;lt;extend&amp;gt;&amp;gt;" style="html=1;verticalAlign=bottom;labelBackgroundColor=none;endArrow=open;endFill=0;dashed=1;rounded=0;exitX=0.692;exitY=0.988;exitDx=0;exitDy=0;exitPerimeter=0;" edge="1" parent="1" target="J1PhEawB0jR5SbhIxSvh-14" source="g7l1Z7gb8DmTAvJHHtyv-10">
          <mxGeometry width="160" relative="1" as="geometry">
            <mxPoint x="715" y="-421" as="sourcePoint" />
            <mxPoint x="815" y="-298" as="targetPoint" />
          </mxGeometry>
        </mxCell>
        <mxCell id="J1PhEawB0jR5SbhIxSvh-14" value="교육 받기" style="ellipse;whiteSpace=wrap;html=1;" vertex="1" parent="1">
          <mxGeometry x="730" y="-338" width="120" height="80" as="geometry" />
        </mxCell>
        <mxCell id="J1PhEawB0jR5SbhIxSvh-18" value="한식을 먹는다" style="ellipse;whiteSpace=wrap;html=1;" vertex="1" parent="1">
          <mxGeometry x="700" y="-900" width="120" height="80" as="geometry" />
        </mxCell>
        <mxCell id="J1PhEawB0jR5SbhIxSvh-20" value="중식을 먹는다" style="ellipse;whiteSpace=wrap;html=1;" vertex="1" parent="1">
          <mxGeometry x="820" y="-960" width="120" height="80" as="geometry" />
        </mxCell>
        <mxCell id="J1PhEawB0jR5SbhIxSvh-21" value="양식을 먹는다" style="ellipse;whiteSpace=wrap;html=1;" vertex="1" parent="1">
          <mxGeometry x="890" y="-1050" width="120" height="80" as="geometry" />
        </mxCell>
        <mxCell id="J1PhEawB0jR5SbhIxSvh-22" value="&amp;lt;&amp;lt;extend&amp;gt;&amp;gt;" style="html=1;verticalAlign=bottom;labelBackgroundColor=none;endArrow=open;endFill=0;dashed=1;rounded=0;exitX=1;exitY=1;exitDx=0;exitDy=0;" edge="1" parent="1" target="J1PhEawB0jR5SbhIxSvh-23" source="g7l1Z7gb8DmTAvJHHtyv-6">
          <mxGeometry width="160" relative="1" as="geometry">
            <mxPoint x="520" y="-1040" as="sourcePoint" />
            <mxPoint x="632" y="-917" as="targetPoint" />
          </mxGeometry>
        </mxCell>
        <mxCell id="J1PhEawB0jR5SbhIxSvh-23" value="교육 받기" style="ellipse;whiteSpace=wrap;html=1;" vertex="1" parent="1">
          <mxGeometry x="547" y="-957" width="120" height="80" as="geometry" />
        </mxCell>
      </root>
    </mxGraphModel>
  </diagram>
</mxfile>
